<?xml version="1.0" encoding="UTF-8"?>
<svg id="Layer_1" data-name="Layer 1" xmlns="http://www.w3.org/2000/svg" xmlns:xlink="http://www.w3.org/1999/xlink" viewBox="0 0 321.89 171.09">
  <defs>
    <style>
      .cls-1 {
        fill: #003866;
      }

      .cls-2 {
        fill: none;
      }

      .cls-3 {
        clip-path: url(#clippath-1);
      }

      .cls-4 {
        fill: #eb410f;
      }

      .cls-5 {
        fill: #f3721d;
      }

      .cls-6 {
        fill: #f3861a;
      }

      .cls-7 {
        clip-path: url(#clippath);
      }
    </style>
    <clipPath id="clippath">
      <rect class="cls-2" x="7.66" y="1.01" width="311.81" height="170.08"/>
    </clipPath>
    <clipPath id="clippath-1">
      <path class="cls-2" d="M58.31,13.22h-31.72c-3.17,0-5.75,2.57-5.75,5.74v93.46c0,3.17,2.57,5.75,5.75,5.75h31.72c3.17,0,5.75-2.57,5.75-5.75v-20.44h.03v-25.04c0-.69.56-1.26,1.26-1.26h15.46c.69,0,1.26.56,1.26,1.26s-.56,1.26-1.26,1.26h-14.2v23.78h12.94c21.47,0,38.86-17.4,38.86-38.87v-1.04c0-21.47-17.4-38.86-38.86-38.86h-21.23ZM170.46,12.84c-2.31,0-4.18,1.87-4.18,4.18v49.92h-2.49V17.54c0-2.6-2.1-4.7-4.7-4.7h-33.81c-2.6,0-4.7,2.11-4.7,4.7v95.55c0,2.59,2.11,4.7,4.7,4.7h33.81c2.6,0,4.7-2.11,4.7-4.7v-41.23h2.49v41.75c0,2.31,1.87,4.18,4.18,4.18h34.86c2.31,0,4.18-1.87,4.18-4.18V17.02c0-2.31-1.87-4.18-4.18-4.18h-34.86ZM249.46,12.84h-31.72c-3.17,0-5.75,2.57-5.75,5.75v93.46c0,3.17,2.57,5.75,5.75,5.75h31.72c3.17,0,5.75-2.57,5.75-5.75v-20.44h.03v-25.04c0-.69.56-1.26,1.26-1.26h15.46c.69,0,1.26.56,1.26,1.26s-.56,1.26-1.26,1.26h-14.21v23.78h12.94c21.47,0,38.87-17.4,38.87-38.86v-1.04c0-21.47-17.4-38.87-38.87-38.87h-21.23Z"/>
    </clipPath>
  </defs>
  <g class="cls-7">
    <path class="cls-1" d="M279.57,153.91c.11,1.56,1.53,4.41,5.94,4.41,3.76,0,5.6-2.35,5.6-4.75,0-2.07-1.41-3.82-4.33-4.41l-1.87-.37c-.62-.11-1.1-.45-1.1-1.05,0-.74.71-1.22,1.53-1.22,1.3,0,1.9.79,2.01,1.73l3.56-.65c-.14-1.64-1.56-4.19-5.63-4.19-3.14,0-5.4,2.09-5.4,4.67,0,1.98,1.19,3.68,4.19,4.33l1.61.37c1.05.23,1.39.65,1.39,1.16,0,.62-.54,1.22-1.64,1.22-1.47,0-2.15-.93-2.21-1.9l-3.65.65ZM274.87,150.86c0,2.35-1.5,3.51-3.2,3.51s-3.17-1.19-3.17-3.51,1.5-3.48,3.17-3.48,3.2,1.13,3.2,3.48M268.56,163.28v-6.48c.65.79,2.01,1.41,3.82,1.41,3.93,0,6.7-3.08,6.7-7.38s-2.46-7.33-6.54-7.33c-2.01,0-3.54.88-4.13,1.78v-1.44h-4.16v19.44h4.3ZM244.2,157.9v-8.09c0-1.27.82-2.43,2.32-2.43s2.26,1.05,2.26,2.38v8.15h4.24v-8.12c0-1.24.82-2.4,2.35-2.4s2.24,1.05,2.24,2.38v8.15h4.16v-9.11c0-3.82-2.55-5.38-5.2-5.38-1.9,0-3.25.62-4.36,2.21-.71-1.39-2.15-2.21-4.16-2.21-1.53,0-3.34.79-4.04,2.04v-1.61h-4.1v14.06h4.3ZM233.25,157.9h4.13c-.03-.23-.14-1.24-.14-2.52v-11.54h-4.3v8.01c0,1.41-.91,2.4-2.35,2.4-1.53,0-2.26-1.07-2.26-2.43v-7.98h-4.3v8.88c0,3,1.92,5.49,5.35,5.49,1.41,0,3.03-.51,3.76-1.73,0,.37.06,1.16.11,1.41M216.36,150.69c4.07,0,6.88-2.63,6.88-6.42s-2.8-6.42-6.88-6.42h-7.55v20.06h4.47v-7.21h3.08ZM213.3,146.84v-5.12h2.6c1.7,0,2.86.96,2.86,2.57s-1.16,2.55-2.86,2.55h-2.6ZM198.17,139.74h-3.85v1.81c0,1.3-.71,2.29-2.18,2.29h-.71v3.76h2.49v6.03c0,2.8,1.78,4.53,4.7,4.53,1.36,0,2.07-.31,2.24-.4v-3.56c-.25.06-.68.14-1.13.14-.93,0-1.56-.31-1.56-1.47v-5.26h2.74v-3.76h-2.74v-4.1ZM183.91,155.19c-1.19,0-1.67-.71-1.67-1.44,0-.99.68-1.41,1.58-1.56l2.66-.42v.62c0,2.18-1.3,2.8-2.58,2.8M178,154.03c0,2.23,1.78,4.27,4.87,4.27,1.87,0,3.23-.79,3.96-1.98,0,.96.11,1.47.14,1.58h3.88c-.03-.14-.17-1.07-.17-2.18v-6.87c0-2.89-1.67-5.43-6.22-5.43-4.13,0-6,2.66-6.17,4.67l3.74.76c.08-1.05.9-2.07,2.4-2.07,1.36,0,2.07.71,2.07,1.53,0,.48-.26.85-1.02.96l-3.31.51c-2.32.34-4.16,1.75-4.16,4.24M173.36,152.84c-.4,1.1-1.27,1.84-2.83,1.84-1.67,0-3.11-1.13-3.2-2.72h9.79c.03-.08.09-.74.09-1.33,0-4.53-2.69-7.21-7.05-7.21-3.65,0-7.02,2.89-7.02,7.41s3.45,7.5,7.33,7.5c3.57,0,5.8-2.04,6.48-4.47l-3.59-1.02ZM167.42,149.19c.08-1.05.99-2.38,2.8-2.38,2.04,0,2.77,1.3,2.83,2.38h-5.63ZM161.39,157.9v-20.06h-4.5v7.86h-8.01v-7.86h-4.47v20.06h4.47v-7.98h8.01v7.98h4.5ZM129.05,155.19c-1.19,0-1.67-.71-1.67-1.44,0-.99.68-1.41,1.58-1.56l2.66-.42v.62c0,2.18-1.3,2.8-2.57,2.8M123.14,154.03c0,2.23,1.78,4.27,4.87,4.27,1.87,0,3.22-.79,3.96-1.98,0,.96.11,1.47.14,1.58h3.88c-.03-.14-.17-1.07-.17-2.18v-6.87c0-2.89-1.67-5.43-6.22-5.43-4.13,0-6,2.66-6.17,4.67l3.73.76c.08-1.05.91-2.07,2.4-2.07,1.36,0,2.06.71,2.06,1.53,0,.48-.25.85-1.02.96l-3.31.51c-2.32.34-4.16,1.75-4.16,4.24M121.47,137.42h-4.3v20.48h4.3v-20.48ZM110.52,157.9h4.13c-.03-.23-.14-1.24-.14-2.52v-11.54h-4.3v8.01c0,1.41-.9,2.4-2.35,2.4-1.53,0-2.26-1.07-2.26-2.43v-7.98h-4.3v8.88c0,3,1.92,5.49,5.35,5.49,1.42,0,3.03-.51,3.76-1.73,0,.37.06,1.16.11,1.41M88.34,153.91c.11,1.56,1.53,4.41,5.94,4.41,3.76,0,5.6-2.35,5.6-4.75,0-2.07-1.41-3.82-4.33-4.41l-1.87-.37c-.62-.11-1.1-.45-1.1-1.05,0-.74.71-1.22,1.53-1.22,1.3,0,1.9.79,2.01,1.73l3.56-.65c-.14-1.64-1.56-4.19-5.63-4.19-3.14,0-5.4,2.09-5.4,4.67,0,1.98,1.19,3.68,4.19,4.33l1.61.37c1.05.23,1.39.65,1.39,1.16,0,.62-.54,1.22-1.64,1.22-1.47,0-2.15-.93-2.21-1.9l-3.65.65ZM78.1,149.84c0-1.41.9-2.46,2.32-2.46,1.56,0,2.29,1.05,2.29,2.43v8.09h4.3v-8.83c0-3.08-1.58-5.6-5.12-5.6-1.44,0-3.17.65-3.93,1.98v-1.61h-4.16v14.06h4.3v-8.06ZM66.5,139.54c0,1.39,1.13,2.52,2.49,2.52s2.55-1.13,2.55-2.52-1.13-2.52-2.55-2.52-2.49,1.13-2.49,2.52M71.17,143.84h-4.3v14.06h4.3v-14.06ZM55.46,149.84c0-1.41.91-2.46,2.32-2.46,1.56,0,2.29,1.05,2.29,2.43v8.09h4.3v-8.83c0-3.08-1.58-5.6-5.12-5.6-1.44,0-3.17.65-3.93,1.98v-1.61h-4.16v14.06h4.3v-8.06ZM45.67,152.84c-.4,1.1-1.27,1.84-2.83,1.84-1.67,0-3.11-1.13-3.2-2.72h9.79c.03-.08.08-.74.08-1.33,0-4.53-2.69-7.21-7.05-7.21-3.65,0-7.02,2.89-7.02,7.41s3.45,7.5,7.33,7.5c3.57,0,5.8-2.04,6.48-4.47l-3.59-1.02ZM39.73,149.19c.08-1.05.99-2.38,2.8-2.38,2.04,0,2.77,1.3,2.83,2.38h-5.63ZM28.87,150.69c4.07,0,6.88-2.63,6.88-6.42s-2.8-6.42-6.88-6.42h-7.56v20.06h4.47v-7.21h3.08ZM25.81,146.84v-5.12h2.6c1.7,0,2.86.96,2.86,2.57s-1.16,2.55-2.86,2.55h-2.6Z"/>
  </g>
  <g class="cls-3">
    <rect class="cls-4" y="92.65" width="321.89" height="46.33"/>
    <rect class="cls-5" y="46.32" width="321.89" height="46.32"/>
    <rect class="cls-6" width="321.89" height="46.32"/>
  </g>
</svg>