<?xml version="1.0" encoding="UTF-8"?>
<svg id="Layer_1" data-name="Layer 1" xmlns="http://www.w3.org/2000/svg" version="1.1" viewBox="0 0 500 257">
  <defs>
    <style>
      .cls-1 {
        fill: #f3861a;
      }

      .cls-1, .cls-2, .cls-3, .cls-4 {
        stroke-width: 0px;
      }

      .cls-2 {
        fill: #f3721d;
      }

      .cls-3 {
        fill: #030054;
      }

      .cls-4 {
        fill: #eb410f;
      }
    </style>
  </defs>
  <g id="logo">
    <g id="logomark">
      <g id="bottom">
        <path class="cls-4" d="M259.9,168.1c0,3.3.5,5.3,1.7,6.5,1.2,1.2,3.2,1.7,6.5,1.7,8.5,0,17,0,25.5,0h29c7.5,0,9.4-1.8,9.4-9.2,0-11,0-22,0-33.1h-72.1c0,13.8,0,28,0,34Z"/>
        <path class="cls-4" d="M182.4,167.3c0,6.5,2.5,9.1,9.1,9.1,8.1,0,16.1,0,24.2,0h28.7c4.3,0,6.7-.6,8.1-2,1.4-1.4,2-3.9,2-8.3,0-5.5,0-18.9,0-32h-72.1c0,10.9,0,21.9,0,33.2Z"/>
        <path class="cls-4" d="M115.2,156.5c0,3.7,0,7.4,0,11.1,0,6.6,2.2,8.9,8.7,8.9h44.3c3.6,0,5.8-.6,7.1-1.9,1.3-1.3,1.9-3.5,1.9-7,0-6.8,0-20.4,0-33.4h-62c0,7.5,0,15,0,22.4Z"/>
        <path class="cls-4" d="M32.4,156.6c15.9,12.9,35.6,20,55.7,20s12.1-.7,18-1.9c2.8-.6,3.6-1.6,3.5-4.3-.2-11.5-.2-23.8,0-36.3H12.6c5.2,8.5,11.8,16.1,19.7,22.5Z"/>
        <path class="cls-4" d="M335.8,165.8c0,3.6.9,6.3,2.6,8,1.7,1.7,4.5,2.6,8.1,2.6h50.9c7.3,0,10.4-3.2,10.5-10.7,0-10.5,0-21.1,0-31.6h-72.1c0,10.6,0,21.1,0,31.7Z"/>
      </g>
      <g id="middle">
        <path class="cls-2" d="M332,89.2h-.1v-22.2c0-3.8,0-7.7,0-11.6h-71.8c0,16.6,0,31,0,31.2.1,1.1.2,2.3-.5,3.1-.5.5-1.2.8-2.2.8s-.1,0-.2,0c-1,0-1.7-.3-2.2-.8-.7-.8-.6-1.9-.5-2.8,0-.2,0-14.7,0-31.4h-71.9c0,25.3,0,51.4,0,78.6h72.1c0-16.3,0-32.2,0-32.8,0-.9.8-2.5,2.7-2.5s2.6,1.5,2.6,2.6c0,.5,0,16.2,0,32.6h72.1c0-7.9,0-15.9,0-23.8v-21.1Z"/>
        <path class="cls-2" d="M167.1,92.9h-96.5c-.3,0-.7,0-1,0-.4,0-.7,0-1.1,0-.6,0-1.1,0-1.6-.2-.2,0-.4-.2-.6-.3-.9-.5-1.4-1.6-1.3-2.7.1-1,.8-1.9,1.7-2.2.5-.2,1-.2,1.6-.2s.7,0,1.1,0c.4,0,.7,0,1,0h79.2s26.7,0,26.7,0c0-1.2-.2-2.3-.3-3.4-.2-2.6-.4-5-.7-7.4-.9-7.3-2.8-14.5-5.5-21.3H6.1C0,71-1.6,88.2,1.6,105.4c1.9,10.2,5.7,19.9,11,28.7h96.9c0,0,0-.2,0-.3,0-.3,0-.6.1-.9.4-1.2,1.4-2,2.7-2s2.5.9,2.7,2.3c0,.1,0,.3,0,.4,0,.1,0,.3,0,.4h62c0-14,0-27.4,0-31.2,0-5.5-4.5-10-10-10Z"/>
        <path class="cls-2" d="M407.9,95.4c0-1.3,0-2.6,0-3.9,0-2.6,1.4-3.9,3.9-3.9h2.4c1.6,0,3.1,0,4.7,0h4.7c3.5,0,7.7,0,11.9.1.2,0,.5,0,.7.1.9.3,1.6,1.2,1.6,2.2,0,1.1-.5,2-1.4,2.5-.4.2-.8.3-1.2.3-3.1.1-6.2.1-8.7.1s-2.3,0-3.4,0c-1.1,0-2.3,0-3.4,0s-1.6,0-2.4,0c-.9,0-1.8,0-2.8.2-.3,0-.6,0-.8,0v38.8c2.2,0,4.4,0,6.5.1,2.3,0,4.5.1,6.7.1,3.2,0,5.9-.1,8.4-.4,7.2-.7,15.5-1.7,23-4.3,12-4.3,22.8-12.7,30.3-23.7,8.5-12.5,12.3-27.6,11.2-43.8-.1-1.5-.3-3-.5-4.6h-163.4c0,26.1,0,52.4,0,78.6h72.1c0-4.2,0-8.4,0-12.6v-26.1Z"/>
      </g>
      <g id="top">
        <path class="cls-1" d="M254.3,9.6c0-7.5-2-9.5-9.7-9.5h-6.1c-7.4,0-14.8,0-22.2,0s-16.7,0-25,0c-6.5,0-8.8,2.3-8.8,8.9,0,15.2,0,30.7,0,46.4h71.9c0-17.2,0-36.9,0-45.8Z"/>
        <path class="cls-1" d="M331.9,8.5c0-6.2-2.1-8.3-8.3-8.3-9.4,0-18.8,0-28.2,0s-18.3,0-27.4,0c-6,0-7.9,1.8-7.9,7.7,0,4.8,0,27.7,0,47.6h71.8c0-15.5,0-31.3,0-47Z"/>
        <path class="cls-1" d="M147.4,22.6C131.3,8,110.6,0,88.9,0s-10.5.5-15.7,1.4C49.5,5.4,29.1,18.3,15.7,37.5c-3.9,5.6-7.1,11.7-9.6,18h164c-4.9-12.4-12.6-23.6-22.7-32.8Z"/>
        <path class="cls-1" d="M479.5,17.9C467.5,6.5,452.2.2,436.5.2c-12.2,0-24.3,0-36.5,0s-23.1,0-34.7,0h-18.7c-7.3,0-10.7,3.3-10.7,10.5,0,14.9,0,29.8,0,44.8h163.4c-2.1-14.1-9-27.3-19.8-37.6Z"/>
      </g>
    </g>
    <g id="text">
      <g id="geelong">
        <path class="cls-3" d="M62.6,230.8h15.3v17.3h-6.3l-.3-2.5-.2.2c-1.9,1.8-5.1,2.8-8.5,2.8-8.9,0-15.2-6.7-15.2-16.3s6.7-16.5,16.3-16.5,13.5,4.6,14.3,11.4v.3s-7.6,0-7.6,0v-.2c-.8-2.9-3.2-4.6-6.8-4.6-5.3,0-8.4,3.6-8.4,9.8s3.1,9.2,8.4,9.2,6.4-1.6,7.3-4.5v-.2c0,0-8.1,0-8.1,0v-6.2Z"/>
        <path class="cls-3" d="M101.5,232c-.5-1.3-1.2-2.5-2.2-3.5-1-1-2.1-1.8-3.5-2.4-1.4-.6-3-.8-4.7-.8s-4.1.5-5.8,1.5c-1.7,1-3.1,2.4-4.1,4.2-1,1.8-1.5,3.8-1.5,6s.5,4.2,1.4,5.9c1,1.8,2.3,3.2,4.1,4.3,1.8,1.1,3.9,1.6,6.2,1.6s3-.2,4.2-.7c1.3-.5,2.4-1.1,3.4-1.9,1-.8,1.7-1.8,2.1-2.9v-.4c.1,0-5.3-2.6-5.3-2.6l-.2.3c-.4.7-.9,1.2-1.6,1.6s-1.5.6-2.5.6-2-.2-2.8-.7c-.8-.5-1.3-1.1-1.7-2-.1-.2-.2-.5-.3-.8v-.2s15,0,15,0v-.3c.2-.3.3-.7.3-1.2,0-.4,0-.9,0-1.3,0-1.6-.2-3-.7-4.3ZM87,233.8v-.3c.4-.9,1-1.6,1.6-2,.7-.5,1.5-.7,2.4-.7s1.8.2,2.4.7c.7.5,1.1,1.1,1.4,1.9,0,0,0,.1,0,.2v.2c0,0-7.9,0-7.9,0Z"/>
        <path class="cls-3" d="M125,232c-.5-1.3-1.2-2.5-2.2-3.5-1-1-2.1-1.8-3.5-2.4-1.4-.6-3-.8-4.7-.8s-4.1.5-5.8,1.5c-1.7,1-3.1,2.4-4.1,4.2-1,1.8-1.5,3.8-1.5,6s.5,4.2,1.4,5.9c1,1.8,2.3,3.2,4.1,4.3,1.8,1.1,3.8,1.6,6.2,1.6s3-.2,4.2-.7c1.3-.5,2.4-1.1,3.4-1.9,1-.8,1.7-1.8,2.1-2.9v-.4c.1,0-5.3-2.6-5.3-2.6l-.2.3c-.4.7-.9,1.2-1.6,1.6-.7.4-1.5.6-2.5.6s-2-.2-2.8-.7c-.8-.5-1.3-1.1-1.7-2-.1-.2-.2-.5-.3-.8v-.2s15,0,15,0v-.3c.2-.3.3-.7.3-1.2,0-.4,0-.9,0-1.3,0-1.6-.2-3-.7-4.3ZM110.6,233.8v-.3c.4-.9,1-1.6,1.6-2,.7-.5,1.5-.7,2.4-.7s1.8.2,2.4.7c.7.5,1.1,1.1,1.4,1.9,0,0,0,.1,0,.2v.2c0,0-7.9,0-7.9,0Z"/>
        <rect class="cls-3" x="128" y="215.8" width="6.8" height="32.4"/>
        <path class="cls-3" d="M159.7,230.9c-1.1-1.8-2.5-3.2-4.4-4.2-1.8-1-3.8-1.5-6.1-1.5s-4.3.5-6.1,1.5c-1.8,1-3.3,2.4-4.4,4.2-1.1,1.8-1.6,3.8-1.6,6.1s.5,4.3,1.6,6.1c1.1,1.8,2.6,3.2,4.4,4.2,1.8,1,3.9,1.5,6.1,1.5s4.3-.5,6.1-1.5c1.8-1,3.3-2.4,4.4-4.2,1.1-1.8,1.6-3.8,1.6-6.1s-.5-4.3-1.6-6.1ZM153.7,239.9c-.4.8-1,1.5-1.8,1.9-.7.5-1.6.7-2.6.7s-1.9-.2-2.6-.7c-.7-.5-1.3-1.1-1.8-1.9-.4-.8-.6-1.8-.6-2.9s.2-2.1.6-2.9,1-1.5,1.8-1.9c.7-.5,1.6-.7,2.6-.7s1.9.2,2.6.7c.7.5,1.3,1.1,1.8,1.9.4.8.6,1.8.6,2.9s-.2,2.1-.6,2.9Z"/>
        <path class="cls-3" d="M184.4,233.9v14.4h-6.8v-13.1c0-.8-.1-1.4-.4-2-.3-.5-.7-1-1.2-1.3-.5-.3-1.2-.5-1.9-.5s-1.3.2-1.9.5c-.5.3-1,.7-1.2,1.3-.3.5-.4,1.2-.4,2v13.1h-6.8v-22.6h6.4v1.7l.3-.3c.4-.4.8-.7,1.2-.9,1.2-.7,2.6-1,4.2-1s3.2.4,4.5,1.1c1.3.7,2.3,1.7,3,3,.7,1.3,1.1,2.8,1.1,4.5Z"/>
        <path class="cls-3" d="M203.3,225.7v1.6l-.3-.2c-.4-.4-.9-.7-1.4-.9-1.2-.6-2.7-1-4.3-1s-3.9.5-5.5,1.4c-1.6.9-2.9,2.2-3.9,3.9-.9,1.6-1.4,3.5-1.4,5.6s.5,4,1.4,5.7c.9,1.7,2.2,3,3.9,3.9,1.6,1,3.5,1.4,5.6,1.4s3.1-.3,4.3-.9c.3-.2.6-.3.9-.5l.2-.2v1.1c0,.8-.2,1.6-.5,2.2-.3.6-.8,1.1-1.5,1.4-.6.3-1.4.5-2.4.5s-2.2-.3-3-.8c-.8-.5-1.3-1.2-1.6-2.1v-.4c-.1,0-6.5,2.2-6.5,2.2v.4c.6,1.4,1.4,2.6,2.5,3.7,1.1,1,2.3,1.8,3.8,2.4,1.5.6,3.1.9,4.8.9s4.1-.4,5.8-1.3c1.7-.9,3-2.1,4-3.7,1-1.6,1.5-3.4,1.5-5.3v-21h-6.4ZM202.3,238.7c-.4.7-.9,1.2-1.6,1.6-.7.4-1.5.6-2.4.6s-1.8-.2-2.5-.6c-.7-.4-1.3-.9-1.7-1.7-.4-.7-.6-1.5-.6-2.4s.2-1.8.6-2.5c.4-.7,1-1.3,1.7-1.7.7-.4,1.5-.6,2.5-.6s1.7.2,2.4.6c.7.4,1.2,1,1.6,1.7.4.7.6,1.6.6,2.5s-.2,1.8-.6,2.5Z"/>
      </g>
      <g id="heat">
        <polygon class="cls-3" points="250 216.1 250 248.2 243 248.2 243 235.2 230.4 235.2 230.4 248.2 223.4 248.2 223.4 216.1 230.4 216.1 230.4 228.9 243 228.9 243 216.1 250 216.1"/>
        <path class="cls-3" d="M274.3,232c-.5-1.3-1.2-2.5-2.2-3.5-1-1-2.1-1.8-3.5-2.4-1.4-.6-3-.8-4.7-.8s-4.1.5-5.8,1.5c-1.7,1-3.1,2.4-4.1,4.2-1,1.8-1.5,3.8-1.5,6s.5,4.2,1.4,5.9c1,1.8,2.3,3.2,4.1,4.3,1.8,1.1,3.8,1.6,6.2,1.6s3-.2,4.2-.7c1.3-.5,2.4-1.1,3.4-1.9,1-.8,1.7-1.8,2.1-2.9v-.4c.1,0-5.3-2.6-5.3-2.6l-.2.3c-.4.7-.9,1.2-1.6,1.6-.7.4-1.5.6-2.5.6s-2-.2-2.8-.7c-.8-.5-1.3-1.1-1.7-2-.1-.2-.2-.5-.3-.8v-.2s15,0,15,0v-.3c.2-.3.3-.7.3-1.2,0-.4,0-.9,0-1.3,0-1.6-.2-3-.7-4.3ZM259.8,233.8v-.3c.4-.9,1-1.6,1.6-2,.7-.5,1.5-.7,2.4-.7s1.8.2,2.4.7c.7.5,1.1,1.1,1.4,1.9,0,0,0,.1,0,.2v.2c0,0-7.9,0-7.9,0Z"/>
        <path class="cls-3" d="M295.4,229.1c-.8-1.2-2-2.2-3.5-2.9-1.5-.7-3.2-1-5-1s-3.1.2-4.4.7c-1.3.5-2.5,1.2-3.5,2.1-1,.9-1.7,2-2.1,3.3v.4c-.1,0,5.4,2.6,5.4,2.6l.2-.4c.3-.9.9-1.6,1.6-2.1.7-.5,1.6-.8,2.6-.8s1.8.2,2.4.7c.6.5.8,1.1.8,1.7v.2l-5.6.9c-1.8.3-3.3.7-4.5,1.4-1.2.7-2.1,1.5-2.7,2.5-.6,1-.9,2.2-.9,3.5s.3,2.6,1,3.6c.7,1,1.6,1.8,2.8,2.3,1.2.5,2.6.8,4.2.8s2.3-.2,3.3-.5c.9-.3,1.8-.7,2.5-1.3l.2-.2v1.5h6.4v-14.7c0-1.6-.4-3.1-1.2-4.3ZM289.8,239.2c0,.8-.2,1.5-.6,2.2-.4.7-.9,1.2-1.6,1.6-.7.4-1.5.6-2.4.6s-1.2-.2-1.6-.5c-.4-.3-.6-.7-.6-1.2s.2-1,.5-1.3c.4-.3,1-.6,1.7-.7l4.4-.8v.2Z"/>
        <path class="cls-3" d="M308.3,231.7v7.9c0,.7.1,1.2.3,1.7.2.4.6.7,1,.9.5.2,1.1.3,1.9.3s.4,0,.6,0c.2,0,.5,0,.8,0h.5s0,5.8,0,5.8h-.4c-.4.1-.9.2-1.4.2-.5,0-1,0-1.5,0-2.7,0-4.9-.8-6.4-2.2-1.5-1.5-2.3-3.6-2.3-6.3v-8.3h-3.7v-6h.6c1,0,1.8-.2,2.3-.7.5-.5.8-1.2.8-2.2v-3.9h6.8v6.8h5.1v6h-5.1Z"/>
      </g>
      <g id="pumps">
        <path class="cls-3" d="M346.3,220.8c-.9-1.5-2.3-2.6-3.9-3.3-1.6-.7-3.5-1.1-5.6-1.1h-11.8v31.9h7v-12.2h4.8c2.1,0,3.9-.4,5.6-1.1,1.6-.8,3-1.9,3.9-3.4,1-1.5,1.4-3.3,1.4-5.4s-.5-4-1.4-5.4ZM340.2,228.1c-.3.5-.8,1-1.3,1.3-.6.3-1.3.5-2.1.5h-4.8v-7.3h4.8c.8,0,1.5.2,2.1.5.6.3,1,.7,1.3,1.3.3.5.5,1.2.5,1.9s-.2,1.4-.5,1.9Z"/>
        <path class="cls-3" d="M369.8,225.7v22.6h-6.4v-1.7l-.3.3c-.4.4-.8.7-1.2.9-1.2.7-2.6,1-4.2,1s-3.4-.4-4.7-1.2c-1.3-.8-2.3-1.9-3-3.3-.7-1.4-1-3.1-1-4.9v-13.6h6.8v13.1c0,.7.2,1.4.4,2,.3.6.7,1,1.3,1.3.5.3,1.2.5,1.9.5s1.4-.2,1.9-.5c.5-.3.9-.7,1.2-1.3.3-.6.4-1.2.4-2v-13.1h6.8Z"/>
        <path class="cls-3" d="M407.9,233.9v14.4h-6.8v-13.1c0-.8-.1-1.5-.4-2-.3-.5-.6-1-1.1-1.3-.5-.3-1.1-.5-1.8-.5s-1.3.2-1.8.5c-.5.3-.9.7-1.2,1.3-.3.5-.4,1.2-.4,2v13.1h-6.8v-13.1c0-.8-.1-1.5-.4-2-.3-.5-.6-1-1.1-1.3-.5-.3-1.1-.5-1.8-.5s-1.3.2-1.8.5c-.5.3-.9.7-1.2,1.3-.3.5-.4,1.2-.4,2v13.1h-6.8v-22.6h6.4v1.7l.3-.2c.2-.2.5-.4.8-.6,1.3-.8,2.8-1.3,4.6-1.3s3.6.5,5,1.4c.6.4,1.1.9,1.5,1.4h.1c0,.1.1,0,.1,0,.5-.6,1.1-1.1,1.7-1.5,1.4-.9,3-1.3,4.9-1.3s3.1.4,4.4,1.1c1.3.7,2.3,1.7,3,3,.7,1.3,1.1,2.8,1.1,4.5Z"/>
        <path class="cls-3" d="M434.6,231c-1-1.8-2.4-3.2-4.1-4.2-1.7-1-3.7-1.6-5.8-1.6s-3.1.3-4.4.9c-.6.3-1.1.6-1.5,1l-.2.2v-1.6h-6.4v30.5h6.8v-9.2l.2.2c.4.3.8.5,1.3.7,1.3.6,2.8.8,4.3.8,2.2,0,4.2-.5,5.9-1.6,1.7-1,3.1-2.5,4.1-4.3,1-1.8,1.5-3.8,1.5-5.9s-.5-4.2-1.5-6ZM428.4,239.9c-.4.8-1.1,1.5-1.8,1.9-.8.5-1.7.7-2.7.7s-1.9-.2-2.6-.7-1.4-1.1-1.8-1.9c-.4-.8-.6-1.8-.6-2.9s.2-2.1.6-2.9c.4-.8,1-1.5,1.8-1.9.8-.5,1.6-.7,2.6-.7s1.9.2,2.7.7c.8.5,1.4,1.1,1.8,1.9.4.8.7,1.8.7,2.9s-.2,2.1-.7,2.9Z"/>
        <path class="cls-3" d="M453.4,237.3c1,1.2,1.5,2.6,1.5,4.2s-.4,2.7-1.1,3.8c-.7,1.1-1.8,1.9-3.1,2.5-1.3.6-2.8.9-4.6.9s-4.6-.6-6.5-1.8c-1.8-1.2-3.1-2.8-3.8-4.8v-.4c-.1,0,5-2.4,5-2.4l.2.4c.5,1.1,1.2,2,2.1,2.6s1.9.9,2.9.9,1.3-.1,1.7-.4c.3-.3.5-.6.5-1.1s0-.4-.2-.6c-.1-.2-.3-.3-.6-.5-.3-.2-.6-.3-1.1-.4l-3.7-1c-1.9-.5-3.3-1.4-4.3-2.6-1-1.2-1.5-2.6-1.5-4.3s.4-2.7,1.1-3.8c.7-1.1,1.8-1.9,3.1-2.5,1.3-.6,2.8-.9,4.5-.9s4.2.5,5.8,1.6c1.7,1,2.9,2.5,3.6,4.4v.4c.1,0-5.1,2.4-5.1,2.4l-.2-.4c-.3-.8-.8-1.5-1.6-2-.8-.5-1.6-.7-2.6-.7s-1.2.1-1.6.4c-.3.2-.5.5-.5,1s0,.4.2.6c.1.2.3.3.6.5.3.2.8.3,1.3.5l3.5,1c1.9.5,3.3,1.4,4.3,2.5Z"/>
      </g>
    </g>
  </g>
</svg>